<svg xmlns="http://www.w3.org/2000/svg" width="980" height="560" viewBox="0 0 980 560" role="img" aria-labelledby="title desc">
  <title id="title">Top 10 Projected 2026 Hitters By xgb_wOBA</title>
  <desc id="desc">Horizontal bar chart showing the top ten projected hitters by xgb_wOBA.</desc>
  <rect width="980" height="560" fill="#ffffff"/>
  <text x="40" y="42" fill="#111827" font-family="Segoe UI, Arial, sans-serif" font-size="24" font-weight="700">Top 10 Projected 2026 Hitters</text>
  <text x="40" y="68" fill="#4b5563" font-family="Segoe UI, Arial, sans-serif" font-size="14">Top 10 shown from 509 hitter projections. Sorted by projected xgb_wOBA.</text>

  <g stroke="#e5e7eb" stroke-width="1">
    <line x1="300" y1="92" x2="300" y2="490"/>
    <line x1="442" y1="92" x2="442" y2="490"/>
    <line x1="584" y1="92" x2="584" y2="490"/>
    <line x1="727" y1="92" x2="727" y2="490"/>
    <line x1="869" y1="92" x2="869" y2="490"/>
  </g>

  <g font-family="Segoe UI, Arial, sans-serif" font-size="14" fill="#111827">
    <text x="40" y="119">Aaron Judge, NYY</text>
    <rect x="300" y="102" width="606" height="22" fill="#60a5fa"/>
    <text x="920" y="119">0.426</text>

    <text x="40" y="159">Shohei Ohtani, LAD</text>
    <rect x="300" y="142" width="589" height="22" fill="#9ca3af"/>
    <text x="903" y="159">0.414</text>

    <text x="40" y="199">Kyle Schwarber, PHI</text>
    <rect x="300" y="182" width="554" height="22" fill="#9ca3af"/>
    <text x="868" y="199">0.389</text>

    <text x="40" y="239">Juan Soto, NYM</text>
    <rect x="300" y="222" width="542" height="22" fill="#9ca3af"/>
    <text x="856" y="239">0.381</text>

    <text x="40" y="279">Ronald Acuña Jr., ATL</text>
    <rect x="300" y="262" width="535" height="22" fill="#9ca3af"/>
    <text x="849" y="279">0.376</text>

    <text x="40" y="319">Yordan Alvarez, HOU</text>
    <rect x="300" y="302" width="525" height="22" fill="#9ca3af"/>
    <text x="839" y="319">0.369</text>

    <text x="40" y="359">Bobby Witt Jr., KCR</text>
    <rect x="300" y="342" width="519" height="22" fill="#9ca3af"/>
    <text x="833" y="359">0.365</text>

    <text x="40" y="399">Jahmai Jones, DET</text>
    <rect x="300" y="382" width="519" height="22" fill="#9ca3af"/>
    <text x="833" y="399">0.365</text>

    <text x="40" y="439">Corbin Carroll, ARI</text>
    <rect x="300" y="422" width="516" height="22" fill="#9ca3af"/>
    <text x="830" y="439">0.363</text>

    <text x="40" y="479">Corey Seager, TEX</text>
    <rect x="300" y="462" width="515" height="22" fill="#9ca3af"/>
    <text x="829" y="479">0.362</text>

  </g>

  <g font-family="Segoe UI, Arial, sans-serif" font-size="12" fill="#6b7280">
    <text x="294" y="516" text-anchor="start">0.000</text>
    <text x="436" y="516" text-anchor="start">0.100</text>
    <text x="578" y="516" text-anchor="start">0.200</text>
    <text x="721" y="516" text-anchor="start">0.300</text>
    <text x="863" y="516" text-anchor="start">0.400</text>
  </g>
</svg>
